<mxfile host="app.diagrams.net" modified="2021-06-09T13:05:26.957Z" agent="5.0 (Windows NT 10.0; Win64; x64) AppleWebKit/537.36 (KHTML, like Gecko) Chrome/91.0.4472.77 Safari/537.36" etag="GQCMxYt_0Um9dN41SVaU" version="14.7.6" type="github">
  <diagram id="sjxEpa3AsEOyEJ2MEUTR" name="Page-1">
    <mxGraphModel dx="1741" dy="834" grid="0" gridSize="10" guides="1" tooltips="1" connect="1" arrows="1" fold="1" page="0" pageScale="1" pageWidth="827" pageHeight="1169" math="0" shadow="0">
      <root>
        <mxCell id="0" />
        <mxCell id="1" parent="0" />
        <mxCell id="JA-ZwGv86Hci3zoSByOs-1" value="" style="rounded=1;whiteSpace=wrap;html=1;fillColor=#d5e8d4;strokeColor=#82b366;sketch=1;fillStyle=solid;sketchStyle=comic;" vertex="1" parent="1">
          <mxGeometry x="340" y="213" width="172" height="43" as="geometry" />
        </mxCell>
        <mxCell id="JA-ZwGv86Hci3zoSByOs-2" value="" style="rounded=1;whiteSpace=wrap;html=1;fillColor=#d5e8d4;strokeColor=#82b366;sketch=1;fillStyle=solid;sketchStyle=comic;" vertex="1" parent="1">
          <mxGeometry x="340" y="260" width="172" height="43" as="geometry" />
        </mxCell>
        <mxCell id="JA-ZwGv86Hci3zoSByOs-3" value="" style="rounded=1;whiteSpace=wrap;html=1;fillColor=#d5e8d4;strokeColor=#82b366;sketch=1;fillStyle=solid;sketchStyle=comic;" vertex="1" parent="1">
          <mxGeometry x="340" y="307" width="172" height="43" as="geometry" />
        </mxCell>
        <mxCell id="JA-ZwGv86Hci3zoSByOs-4" value="" style="rounded=1;whiteSpace=wrap;html=1;fillColor=#d5e8d4;strokeColor=#82b366;sketch=1;fillStyle=solid;sketchStyle=comic;" vertex="1" parent="1">
          <mxGeometry x="340" y="354" width="172" height="43" as="geometry" />
        </mxCell>
        <mxCell id="JA-ZwGv86Hci3zoSByOs-5" value="" style="rounded=0;whiteSpace=wrap;html=1;sketch=1;fillColor=#dae8fc;strokeColor=#6c8ebf;fillStyle=solid;sketchStyle=comic;" vertex="1" parent="1">
          <mxGeometry x="-34" y="294" width="251" height="122" as="geometry" />
        </mxCell>
        <mxCell id="JA-ZwGv86Hci3zoSByOs-6" value="&lt;h2&gt;&lt;font face=&quot;Comic Sans MS&quot; style=&quot;font-weight: normal&quot;&gt;pid_t pid&lt;/font&gt;&lt;/h2&gt;" style="rounded=1;whiteSpace=wrap;html=1;fillColor=#d5e8d4;strokeColor=#82b366;sketch=1;fillStyle=solid;glass=0;shadow=0;sketchStyle=comic;" vertex="1" parent="1">
          <mxGeometry x="1" y="307" width="174" height="43" as="geometry" />
        </mxCell>
        <mxCell id="JA-ZwGv86Hci3zoSByOs-7" value="struct files_struct *files" style="rounded=1;whiteSpace=wrap;html=1;fillColor=#d5e8d4;strokeColor=#82b366;sketch=1;fillStyle=solid;sketchStyle=comic;" vertex="1" parent="1">
          <mxGeometry x="-28.130000000000003" y="362" width="239.25" height="43" as="geometry" />
        </mxCell>
      </root>
    </mxGraphModel>
  </diagram>
</mxfile>
